<svg height="480pt" viewBox="-4 0 480 480" width="480pt" xmlns="http://www.w3.org/2000/svg"><path d="m80 472v-22.398438l161.808594 29.421876c4.660156.839843 9.46875.28125 13.816406-1.597657l125.65625-54.402343c20.269531-7.03125 31.34375-28.839844 25.066406-49.355469s-27.660156-32.390625-48.394531-26.875c-.230469.050781-.457031.121093-.671875.207031l-97.144531 35.007812c-2.175781.78125-4.582031.589844-6.609375-.527343l-38.65625-21.480469h29.128906c19.882812 0 36-16.117188 36-36s-16.117188-36-36-36h-60c-.917969 0-1.828125.160156-2.6875.472656l-110.6875 39.527344h-62.625c-4.417969 0-8 3.582031-8 8v136c0 4.417969 3.582031 8 8 8h64c4.417969 0 8-3.582031 8-8zm0-130.398438 105.382812-37.601562h58.617188c11.046875 0 20 8.953125 20 20s-8.953125 20-20 20h-60c-3.644531 0-6.828125 2.464844-7.746094 5.992188-.914062 3.527343.671875 7.230468 3.859375 9l65.648438 36.472656c6.054687 3.371094 13.273437 3.957031 19.789062 1.597656l96.800781-34.878906c7.132813-1.769532 14.6875-.15625 20.476563 4.371094 5.789063 4.53125 9.171875 11.472656 9.171875 18.820312-.074219 10.34375-6.722656 19.496094-16.535156 22.761719l-126.175782 54.597656c-1.457031.632813-3.066406.816406-4.625.53125l-164.664062-29.945313zm-16 98.398438v24h-48v-120h48zm0 0"/><path d="m248 128h-64c-4.417969 0-8 3.582031-8 8v64c0 4.417969 3.582031 8 8 8h64c4.417969 0 8-3.582031 8-8v-64c0-4.417969-3.582031-8-8-8zm-40 64h-16v-16h16zm0-32h-16v-16h16zm32 32h-16v-16h16zm0-32h-16v-16h16zm0 0"/><path d="m472 248c0-13.253906-10.746094-24-24-24h-16v-120c0-.097656-.046875-.167969-.054688-.265625-.015624-.933594-.203124-1.859375-.554687-2.726563-.0625-.175781-.183594-.3125-.261719-.480468-.199218-.464844-.445312-.910156-.730468-1.328125l-72-96c-.046876-.0625-.132813-.078125-.183594-.144531-1.496094-1.914063-3.785156-3.039063-6.214844-3.054688h-128c-2.519531 0-4.890625 1.1875-6.398438 3.199219l-15.601562 20.800781h-42c-4.417969 0-8 3.582031-8 8v58.671875l-6.398438 8.527344c-.285156.417969-.53125.863281-.730468 1.328125-.078125.167968-.199219.304687-.261719.480468-.351563.867188-.539063 1.792969-.554687 2.726563 0 .097656-.054688.167969-.054688.265625v120h-16c-13.253906 0-24 10.746094-24 24s10.746094 24 24 24h320c13.253906 0 24-10.746094 24-24zm-96-104h-48c-4.417969 0-8 3.582031-8 8v72h-32v-112h128v112h-32v-72c0-4.417969-3.582031-8-8-8zm-8 16v64h-32v-64zm40-64h-112l56-74.664062zm-180-80h108l-60 80h-106zm-60 24h22l-22 29.335938zm-8 72h112v112h-112zm-40 136c0-4.417969 3.582031-8 8-8h320c4.417969 0 8 3.582031 8 8s-3.582031 8-8 8h-320c-4.417969 0-8-3.582031-8-8zm0 0"/><path d="m296 288h16v16h-16zm0 0"/><path d="m296 320h16v16h-16zm0 0"/><path d="m328 288h16v16h-16zm0 0"/><path d="m328 320h16v16h-16zm0 0"/><path d="m360 288h16v16h-16zm0 0"/><path d="m360 320h16v16h-16zm0 0"/><path d="m392 288h16v16h-16zm0 0"/></svg>